<?xml version="1.0" encoding="UTF-8" standalone="no"?>
<!-- Created with Inkscape (http://www.inkscape.org/) -->

<svg
   width="139.54916mm"
   height="49.950348mm"
   viewBox="0 0 139.54916 49.950348"
   version="1.1"
   id="svg5"
   xmlns="http://www.w3.org/2000/svg"
   xmlns:svg="http://www.w3.org/2000/svg">
  <defs
     id="defs2">
    <rect
       x="42.340656"
       y="114.54952"
       width="102.4053"
       height="115.53419"
       id="rect10481-2-3-1" />
    <rect
       x="42.340656"
       y="114.54952"
       width="102.4053"
       height="115.53419"
       id="rect10455-9-6-9" />
  </defs>
  <g
     id="layer2"
     transform="translate(-260.94034,-307.11193)">
    <g
       aria-label="Indie Game"
       id="text1643-8"
       style="font-size:17.6389px;font-family:'Lilita One';-inkscape-font-specification:'Lilita One';fill:#1b1b1b;stroke-width:3.80899;stroke-linecap:round;stroke-linejoin:round;stroke-opacity:0.5;paint-order:markers stroke fill">
      <path
         d="m 316.38721,327.52025 v -6.27945 h -1.25236 q -0.29987,0 -0.42334,-0.75847 -0.0529,-0.37042 -0.0529,-0.75848 0,-0.38805 0.0529,-0.75847 0.12347,-0.75847 0.42334,-0.75847 h 5.92667 q 0.29986,0 0.40569,0.75847 0.0706,0.37042 0.0706,0.75847 0,0.38806 -0.0706,0.75848 -0.10583,0.75847 -0.40569,0.75847 h -1.18181 v 6.27945 h 1.23472 q 0.29986,0 0.42334,0.75847 0.0705,0.37042 0.0705,0.75847 0,0.38806 -0.0705,0.75848 -0.12348,0.75847 -0.42334,0.75847 h -5.94431 q -0.29986,0 -0.40569,-0.75847 -0.0706,-0.37042 -0.0706,-0.75848 0,-0.38805 0.0706,-0.75847 0.10583,-0.75847 0.40569,-0.75847 z"
         style="stroke-width:3.809"
         id="path682" />
      <path
         d="m 326.38848,330.4483 q 0,0.12348 -1.27,0.12348 -1.76389,-0.0529 -1.76389,-0.19403 v -5.715 h -0.45861 q -0.45861,0 -0.59973,-0.77612 -0.0353,-0.2293 -0.0353,-0.45861 0,-0.5468 0.21166,-1.09361 0.3175,-0.77611 0.98778,-0.77611 0.67028,0 1.19945,0.3175 0.52916,0.3175 0.70555,0.635 1.11125,-0.9525 2.64584,-0.9525 1.53458,0 2.2225,0.82903 0.68792,0.82903 0.68792,2.71639 v 5.29167 q 0,0.21166 -1.51695,0.21166 -1.49931,0 -1.49931,-0.21166 v -5.09764 q 0,-0.88195 -0.61736,-0.88195 -0.17639,0 -0.49389,0.15875 -0.3175,0.14111 -0.40569,0.21167 z"
         style="stroke-width:3.809"
         id="path684" />
      <path
         d="m 336.88364,318.31274 q 0,-0.26458 1.39347,-0.26458 0.47625,0 1.09361,0.0706 0.635,0.0529 0.635,0.15875 v 9.2957 h 0.61736 q 0.44097,0 0.58209,0.79375 0.0353,0.22931 0.0353,0.635 0,0.38806 -0.24694,0.95251 -0.35278,0.77611 -1.12889,0.77611 -0.58208,0 -1.0407,-0.22931 -0.44097,-0.2293 -0.59972,-0.47625 l -0.15875,-0.2293 q -0.97014,0.93486 -2.43417,0.93486 -1.46403,0 -2.50472,-1.21709 -1.0407,-1.21708 -1.0407,-3.38667 0,-2.18722 1.09362,-3.36903 1.09361,-1.19944 2.73403,-1.19944 0.47625,0 0.97014,0.10583 z m -0.58209,6.06778 q -0.98778,0 -0.98778,1.78153 0,0.89959 0.28223,1.30528 0.28222,0.38806 0.61736,0.38806 0.35278,0 0.67028,-0.29986 v -2.99862 q -0.29987,-0.17639 -0.58209,-0.17639 z"
         style="stroke-width:3.809"
         id="path686" />
      <path
         d="m 345.6149,330.4483 q 0,0.14112 -1.62278,0.14112 -1.60514,0 -1.60514,-0.12348 v -8.6607 q 0,-0.12347 1.60514,-0.12347 1.62278,0 1.62278,0.10583 z m 0,-9.70139 q 0,0.12347 -1.62278,0.12347 -1.60514,0 -1.60514,-0.10583 v -2.54 q 0,-0.17639 1.60514,-0.17639 1.62278,0 1.62278,0.10583 z"
         style="stroke-width:3.809"
         id="path688" />
      <path
         d="m 353.86992,330.07789 q -1.11125,0.65264 -2.8575,0.65264 -1.74625,0 -2.9457,-1.18181 -1.19944,-1.19944 -1.19944,-3.29847 0,-2.11667 1.14652,-3.40431 1.16417,-1.28764 2.92806,-1.28764 1.76389,0 2.71639,0.89958 0.97014,0.89959 0.97014,2.18723 0,2.8575 -3.28083,2.8575 h -1.21709 q 0,0.52917 0.28223,0.74083 0.29986,0.19403 0.8643,0.19403 1.23472,0 2.34598,-0.56444 0.0176,-0.0176 0.15875,0.24694 0.42333,0.75847 0.42333,1.28764 0,0.51153 -0.33514,0.67028 z m -2.20486,-5.09764 q 0,-0.74084 -0.7232,-0.74084 -0.33514,0 -0.58208,0.21167 -0.22931,0.19403 -0.22931,0.58208 v 0.54681 h 0.9525 q 0.58209,0 0.58209,-0.59972 z"
         style="stroke-width:3.809"
         id="path690" />
      <path
         d="m 365.70562,326.86761 0.0353,-2.39889 q 0,-0.24695 0.51152,-0.3175 0.51153,-0.0882 0.84667,-0.0882 l 0.68792,0.0529 q 0.67028,0.10583 0.67028,0.37042 l -0.0706,5.52097 q -0.35278,0.24695 -1.42875,0.49389 -1.05833,0.22931 -2.43417,0.22931 -2.55764,0 -4.1275,-1.65806 -1.56986,-1.65806 -1.56986,-4.86834 0,-2.73403 1.53458,-4.445 1.53459,-1.71097 4.25098,-1.71097 1.23472,0 2.2225,0.24694 1.00541,0.22931 1.37583,0.635 0.0176,0.14111 0.0176,0.52917 0,0.38806 -0.26458,1.11125 -0.26459,0.70556 -0.59973,1.05833 -0.33513,0.35278 -0.49388,0.35278 -0.14112,0 -0.31751,-0.12347 -0.15875,-0.14111 -0.65263,-0.28222 -0.49389,-0.15875 -0.95251,-0.15875 -1.09361,0 -1.78152,0.70555 -0.67028,0.70556 -0.67028,2.18723 0,1.48166 0.68791,2.25778 0.70556,0.75847 1.60514,0.75847 0.91723,0 0.91723,-0.45861 z"
         style="stroke-width:3.809"
         id="path692" />
      <path
         d="m 371.15604,324.15122 q -0.49389,-0.88195 -0.49389,-1.42875 0,-0.56445 0.29986,-0.7232 1.00542,-0.44097 2.75167,-0.44097 1.76389,0 2.48709,0.82903 0.72319,0.81139 0.72319,2.41653 v 2.78694 h 0.59973 q 0.29986,0 0.45861,0.35278 0.17639,0.35278 0.17639,0.97014 0,0.61736 -0.3175,1.21708 -0.29987,0.59973 -0.82903,0.59973 -0.9525,0 -1.53459,-0.51153 -0.26458,-0.21167 -0.40569,-0.51153 -0.81139,1.02306 -2.52236,1.02306 -1.28764,0 -2.16959,-0.91723 -0.88194,-0.91722 -0.88194,-2.16958 0,-2.87514 3.43958,-2.87514 h 0.97014 v -0.17639 q 0,-0.45861 -0.15875,-0.58208 -0.14111,-0.14112 -0.68792,-0.14112 -0.67027,0 -1.905,0.28223 z m 1.41111,3.24555 q 0,0.38806 0.21167,0.59973 0.21167,0.19403 0.52917,0.19403 0.33514,0 0.59972,-0.26459 v -1.35819 h -0.49389 q -0.84667,0 -0.84667,0.82902 z"
         style="stroke-width:3.809"
         id="path694" />
      <path
         d="m 387.15453,330.46594 q 0,0.12348 -1.51695,0.12348 -1.49931,0 -1.49931,-0.15875 v -5.13292 q 0,-0.88195 -0.58208,-0.88195 -0.29986,0 -0.79375,0.38806 v 5.64444 q 0,0.17639 -1.51695,0.17639 -1.4993,0 -1.4993,-0.19402 v -5.76792 h -0.44097 q -0.58209,0 -0.58209,-1.21709 0,-0.5468 0.21167,-1.11125 0.28222,-0.77611 0.91722,-0.77611 0.635,0 1.21709,0.33514 0.59972,0.33514 0.72319,0.635 1.09361,-0.97014 2.41653,-0.97014 1.34056,0 2.15195,0.82903 0.9525,-0.82903 2.29305,-0.82903 2.91042,0 2.91042,3.54542 v 5.36222 q 0,0.12348 -1.51694,0.12348 -1.49931,0 -1.49931,-0.15875 v -5.13292 q 0,-0.88195 -0.58208,-0.88195 -0.3175,0 -0.81139,0.38806 z"
         style="stroke-width:3.809"
         id="path696" />
      <path
         d="m 399.73107,330.07789 q -1.11125,0.65264 -2.8575,0.65264 -1.74625,0 -2.9457,-1.18181 -1.19945,-1.19944 -1.19945,-3.29847 0,-2.11667 1.14653,-3.40431 1.16417,-1.28764 2.92806,-1.28764 1.76389,0 2.71639,0.89958 0.97014,0.89959 0.97014,2.18723 0,2.8575 -3.28083,2.8575 h -1.21709 q 0,0.52917 0.28222,0.74083 0.29987,0.19403 0.86431,0.19403 1.23472,0 2.34597,-0.56444 0.0176,-0.0176 0.15875,0.24694 0.42334,0.75847 0.42334,1.28764 0,0.51153 -0.33514,0.67028 z m -2.20486,-5.09764 q 0,-0.74084 -0.7232,-0.74084 -0.33514,0 -0.58208,0.21167 -0.22931,0.19403 -0.22931,0.58208 v 0.54681 h 0.9525 q 0.58209,0 0.58209,-0.59972 z"
         style="stroke-width:3.809"
         id="path698" />
    </g>
    <rect
       style="fill:#1b1b1b;fill-opacity:1;stroke:none;stroke-width:1.21346;stroke-linecap:round;stroke-linejoin:round;stroke-opacity:0.5;paint-order:markers stroke fill"
       id="rect1093-1-9"
       width="10.153414"
       height="10.153414"
       x="198.08434"
       y="381.17853"
       rx="1.1438575"
       ry="1.189376"
       transform="rotate(-13.749683)" />
    <rect
       style="fill:#1b1b1b;fill-opacity:1;stroke:none;stroke-width:1.21346;stroke-linecap:round;stroke-linejoin:round;stroke-opacity:0.5;paint-order:markers stroke fill"
       id="rect1085-5-9"
       width="10.153414"
       height="10.153414"
       x="199.3492"
       y="369.31674"
       rx="1.1438575"
       ry="1.189376"
       transform="rotate(-13.749683)" />
    <rect
       style="fill:#323232;fill-opacity:1;stroke:none;stroke-width:1.21346;stroke-linecap:round;stroke-linejoin:round;stroke-opacity:0.5;paint-order:markers stroke fill"
       id="rect1095-4-1"
       width="10.153414"
       height="10.153414"
       x="195.89856"
       y="378.51614"
       rx="1.1438575"
       ry="1.189376"
       transform="rotate(-13.749683)" />
    <rect
       style="fill:#323232;fill-opacity:1;stroke:none;stroke-width:1.21346;stroke-linecap:round;stroke-linejoin:round;stroke-opacity:0.5;paint-order:markers stroke fill"
       id="rect1087-5-3"
       width="10.153414"
       height="10.153414"
       x="197.16342"
       y="366.65439"
       rx="1.1438575"
       ry="1.189376"
       transform="rotate(-13.749683)" />
    <rect
       style="fill:#1b1b1b;fill-opacity:1;stroke:none;stroke-width:2.64303;stroke-linecap:round;stroke-linejoin:round;stroke-opacity:0.5;paint-order:markers stroke fill"
       id="rect10469-4-4"
       width="22.115105"
       height="22.115105"
       x="62.068058"
       y="427.08322"
       rx="2.4914308"
       ry="2.5905745"
       transform="rotate(-30)" />
    <rect
       style="fill:#323232;fill-opacity:1;stroke:none;stroke-width:2.64303;stroke-linecap:round;stroke-linejoin:round;stroke-opacity:0.5;paint-order:markers stroke fill"
       id="rect10435-9-8"
       width="22.115105"
       height="22.115105"
       x="60.063587"
       y="422.39188"
       rx="2.4914308"
       ry="2.5905745"
       transform="rotate(-30)" />
    <rect
       style="fill:#1b1b1b;fill-opacity:1;stroke:none;stroke-width:1.79716;stroke-linecap:round;stroke-linejoin:round;stroke-opacity:0.5;paint-order:markers stroke fill"
       id="rect10467-98-6"
       width="15.037367"
       height="15.037367"
       x="203.61357"
       y="394.83594"
       rx="1.6940711"
       ry="1.7614847"
       transform="rotate(-13.749683)" />
    <rect
       style="fill:#323232;fill-opacity:1;stroke:none;stroke-width:1.79716;stroke-linecap:round;stroke-linejoin:round;stroke-opacity:0.5;paint-order:markers stroke fill"
       id="rect10459-0-6"
       width="15.037367"
       height="15.037367"
       x="200.37639"
       y="390.89294"
       rx="1.6940711"
       ry="1.7614847"
       transform="rotate(-13.749683)" />
    <rect
       style="fill:#1b1b1b;fill-opacity:1;stroke:none;stroke-width:1.79716;stroke-linecap:round;stroke-linejoin:round;stroke-opacity:0.5;paint-order:markers stroke fill"
       id="rect10885-7-6"
       width="15.037367"
       height="15.037367"
       x="180.13615"
       y="377.32352"
       rx="1.6940711"
       ry="1.7614847"
       transform="rotate(-13.749683)" />
    <g
       aria-label="P"
       transform="matrix(0.52181292,-0.13981935,0.13981935,0.52181292,229.59371,263.75214)"
       id="text10475-05-3"
       style="font-size:66.6667px;font-family:'Lilita One';-inkscape-font-specification:'Lilita One';white-space:pre;shape-inside:url(#rect10481-2-3-1);fill:#1b1b1b;stroke-width:14.3962;stroke-linecap:round;stroke-linejoin:round;stroke-opacity:0.5;paint-order:markers stroke fill">
      <path
         d="m 51.473182,176.8864 q -6.06667,0 -6.06667,-1.33333 v -43.20003 q 0,-2.26666 2.066668,-2.26666 h 11.733339 q 9.866672,0 14.200008,4.06667 4.400002,4.06666 4.400002,11.8 0,6.40001 -4.133335,11.73334 -2.066668,2.66667 -6.06667,4.26667 -4.000002,1.6 -9.333338,1.6 v 11.93334 q 0,0.8 -2.533335,1.13333 -2.466668,0.26667 -4.266669,0.26667 z m 6.800004,-35.20002 v 10.53334 h 0.866667 q 2.333334,0 3.933335,-1.46667 1.600001,-1.46666 1.600001,-4.13333 0,-2.66667 -1.133334,-3.8 -1.066667,-1.13334 -3.866669,-1.13334 z"
         id="path654" />
    </g>
    <g
       aria-label="x"
       transform="rotate(-165)"
       id="text10479-4-1"
       style="font-size:18.592px;font-family:'Lilita One';-inkscape-font-specification:'Lilita One';fill:#1b1b1b;stroke-width:4.0148;stroke-linecap:round;stroke-linejoin:round;stroke-opacity:0.5;paint-order:markers stroke fill">
      <path
         d="m -372.4899,-258.22034 q 0.0744,-0.14874 0.9296,-0.14874 2.7888,0 2.71443,0.20451 l -2.26823,4.70378 q 2.28682,4.27616 2.28682,4.27616 0,0.11155 -1.11552,0.18592 -1.11552,0.0744 -1.58032,0.0744 -1.1713,0 -1.24566,-0.2417 l -1.00397,-3.10486 -1.15271,3.23501 q -0.0372,0.13014 -1.05974,0.13014 -1.02256,0 -1.82202,-0.0744 -0.79945,-0.0744 -0.72508,-0.18592 l 2.10089,-4.27616 q -2.19385,-4.59222 -2.19385,-4.61081 0,-0.11156 0.55776,-0.20452 0.57635,-0.093 1.28284,-0.093 0.72509,0 1.37581,0.0744 0.65072,0.0558 0.72509,0.16733 l 0.98538,3.0119 z"
         style="stroke-width:4.01481"
         id="path660" />
    </g>
    <rect
       style="fill:#323232;fill-opacity:1;stroke:none;stroke-width:1.79716;stroke-linecap:round;stroke-linejoin:round;stroke-opacity:0.5;paint-order:markers stroke fill"
       id="rect10887-4-7"
       width="15.037367"
       height="15.037367"
       x="176.89897"
       y="373.38052"
       rx="1.6940711"
       ry="1.7614847"
       transform="rotate(-13.749683)" />
    <g
       aria-label="P"
       transform="matrix(0.52181292,-0.13981935,0.13981935,0.52181292,225.51213,260.69156)"
       id="text10443-6-1"
       style="font-size:66.6667px;font-family:'Lilita One';-inkscape-font-specification:'Lilita One';white-space:pre;shape-inside:url(#rect10455-9-6-9);fill:#ffffff;stroke-width:14.3962;stroke-linecap:round;stroke-linejoin:round;stroke-opacity:0.5;paint-order:markers stroke fill">
      <path
         d="m 51.473182,176.8864 q -6.06667,0 -6.06667,-1.33333 v -43.20003 q 0,-2.26666 2.066668,-2.26666 h 11.733339 q 9.866672,0 14.200008,4.06667 4.400002,4.06666 4.400002,11.8 0,6.40001 -4.133335,11.73334 -2.066668,2.66667 -6.06667,4.26667 -4.000002,1.6 -9.333338,1.6 v 11.93334 q 0,0.8 -2.533335,1.13333 -2.466668,0.26667 -4.266669,0.26667 z m 6.800004,-35.20002 v 10.53334 h 0.866667 q 2.333334,0 3.933335,-1.46667 1.600001,-1.46666 1.600001,-4.13333 0,-2.66667 -1.133334,-3.8 -1.066667,-1.13334 -3.866669,-1.13334 z"
         id="path651" />
    </g>
    <g
       aria-label="x"
       transform="rotate(-165)"
       id="text10451-3-9"
       style="font-size:18.592px;font-family:'Lilita One';-inkscape-font-specification:'Lilita One';fill:#ffffff;stroke-width:4.0148;stroke-linecap:round;stroke-linejoin:round;stroke-opacity:0.5;paint-order:markers stroke fill">
      <path
         d="m -367.75529,-256.32045 q 0.0744,-0.14874 0.9296,-0.14874 2.7888,0 2.71444,0.20451 l -2.26823,4.70378 q 2.28682,4.27616 2.28682,4.27616 0,0.11155 -1.11552,0.18592 -1.11552,0.0744 -1.58032,0.0744 -1.1713,0 -1.24567,-0.2417 l -1.00396,-3.10486 -1.15271,3.235 q -0.0372,0.13015 -1.05974,0.13015 -1.02256,0 -1.82202,-0.0744 -0.79945,-0.0744 -0.72509,-0.18592 l 2.1009,-4.27616 q -2.19386,-4.59222 -2.19386,-4.61082 0,-0.11155 0.55776,-0.20451 0.57636,-0.093 1.28285,-0.093 0.72509,0 1.37581,0.0744 0.65072,0.0558 0.72509,0.16733 l 0.98537,3.0119 z"
         style="stroke-width:4.01481"
         id="path657" />
    </g>
    <rect
       style="fill:#1b1b1b;fill-opacity:1;stroke:none;stroke-width:1.21346;stroke-linecap:round;stroke-linejoin:round;stroke-opacity:0.5;paint-order:markers stroke fill"
       id="rect1089-0-9"
       width="10.153414"
       height="10.153414"
       x="211.21812"
       y="378.65613"
       rx="1.1438575"
       ry="1.189376"
       transform="rotate(-13.749683)" />
    <rect
       style="fill:#323232;fill-opacity:1;stroke:none;stroke-width:1.21346;stroke-linecap:round;stroke-linejoin:round;stroke-opacity:0.5;paint-order:markers stroke fill"
       id="rect1091-8-3"
       width="10.153414"
       height="10.153414"
       x="209.03235"
       y="375.99377"
       rx="1.1438575"
       ry="1.189376"
       transform="rotate(-13.749683)" />
    <g
       aria-label="Indie Game"
       id="text515-8"
       style="font-size:17.6389px;font-family:'Lilita One';-inkscape-font-specification:'Lilita One';fill:#ffffff;stroke-width:3.80899;stroke-linecap:round;stroke-linejoin:round;stroke-opacity:0.5;paint-order:markers stroke fill">
      <path
         d="m 314.1557,325.31959 v -6.27944 h -1.25236 q -0.29986,0 -0.42333,-0.75848 -0.0529,-0.37041 -0.0529,-0.75847 0,-0.38806 0.0529,-0.75847 0.12347,-0.75848 0.42333,-0.75848 h 5.92667 q 0.29986,0 0.40569,0.75848 0.0706,0.37041 0.0706,0.75847 0,0.38806 -0.0706,0.75847 -0.10583,0.75848 -0.40569,0.75848 h -1.18181 v 6.27944 h 1.23473 q 0.29986,0 0.42333,0.75848 0.0706,0.37041 0.0706,0.75847 0,0.38806 -0.0706,0.75847 -0.12347,0.75848 -0.42333,0.75848 h -5.94431 q -0.29986,0 -0.4057,-0.75848 -0.0705,-0.37041 -0.0705,-0.75847 0,-0.38806 0.0705,-0.75847 0.10584,-0.75848 0.4057,-0.75848 z"
         style="stroke-width:3.809"
         id="path663" />
      <path
         d="m 324.15697,328.24765 q 0,0.12347 -1.27,0.12347 -1.76389,-0.0529 -1.76389,-0.19402 v -5.71501 h -0.45861 q -0.45861,0 -0.59972,-0.77611 -0.0353,-0.22931 -0.0353,-0.45861 0,-0.54681 0.21167,-1.09361 0.3175,-0.77611 0.98778,-0.77611 0.67027,0 1.19944,0.3175 0.52917,0.3175 0.70556,0.635 1.11125,-0.9525 2.64583,-0.9525 1.53459,0 2.2225,0.82902 0.68792,0.82903 0.68792,2.71639 v 5.29168 q 0,0.21166 -1.51695,0.21166 -1.4993,0 -1.4993,-0.21166 v -5.09765 q 0,-0.88194 -0.61736,-0.88194 -0.17639,0 -0.49389,0.15875 -0.3175,0.14111 -0.4057,0.21166 z"
         style="stroke-width:3.809"
         id="path665" />
      <path
         d="m 334.65213,316.11209 q 0,-0.26459 1.39347,-0.26459 0.47625,0 1.09361,0.0706 0.635,0.0529 0.635,0.15875 v 9.2957 h 0.61737 q 0.44097,0 0.58208,0.79375 0.0353,0.22931 0.0353,0.635 0,0.38806 -0.24695,0.9525 -0.35278,0.77611 -1.12889,0.77611 -0.58208,0 -1.04069,-0.2293 -0.44097,-0.22931 -0.59972,-0.47625 l -0.15875,-0.22931 q -0.97014,0.93486 -2.43417,0.93486 -1.46403,0 -2.50473,-1.21708 -1.04069,-1.21708 -1.04069,-3.38667 0,-2.18722 1.09361,-3.36903 1.09361,-1.19944 2.73403,-1.19944 0.47625,0 0.97014,0.10583 z m -0.58208,6.06778 q -0.98778,0 -0.98778,1.78153 0,0.89958 0.28222,1.30528 0.28222,0.38805 0.61736,0.38805 0.35278,0 0.67028,-0.29986 v -2.99861 q -0.29986,-0.17639 -0.58208,-0.17639 z"
         style="stroke-width:3.809"
         id="path667" />
      <path
         d="m 343.38339,328.24765 q 0,0.14111 -1.62277,0.14111 -1.60514,0 -1.60514,-0.12347 v -8.6607 q 0,-0.12347 1.60514,-0.12347 1.62277,0 1.62277,0.10583 z m 0,-9.70139 q 0,0.12347 -1.62277,0.12347 -1.60514,0 -1.60514,-0.10583 v -2.54001 q 0,-0.17639 1.60514,-0.17639 1.62277,0 1.62277,0.10584 z"
         style="stroke-width:3.809"
         id="path669" />
      <path
         d="m 351.63841,327.87723 q -1.11125,0.65264 -2.8575,0.65264 -1.74625,0 -2.94569,-1.1818 -1.19945,-1.19945 -1.19945,-3.29848 0,-2.11666 1.14653,-3.4043 1.16417,-1.28764 2.92806,-1.28764 1.76389,0 2.71639,0.89958 0.97014,0.89958 0.97014,2.18722 0,2.85751 -3.28084,2.85751 h -1.21708 q 0,0.52916 0.28222,0.74083 0.29986,0.19403 0.8643,0.19403 1.23473,0 2.34598,-0.56445 0.0176,-0.0176 0.15875,0.24695 0.42333,0.75847 0.42333,1.28764 0,0.51152 -0.33514,0.67027 z m -2.20486,-5.09764 q 0,-0.74083 -0.72319,-0.74083 -0.33514,0 -0.58209,0.21167 -0.2293,0.19402 -0.2293,0.58208 v 0.54681 h 0.9525 q 0.58208,0 0.58208,-0.59973 z"
         style="stroke-width:3.809"
         id="path671" />
      <path
         d="m 363.47411,324.66695 0.0353,-2.39889 q 0,-0.24694 0.51153,-0.3175 0.51153,-0.0882 0.84666,-0.0882 l 0.68792,0.0529 q 0.67028,0.10583 0.67028,0.37041 l -0.0706,5.52098 q -0.35277,0.24694 -1.42875,0.49389 -1.05833,0.2293 -2.43417,0.2293 -2.55764,0 -4.1275,-1.65805 -1.56986,-1.65806 -1.56986,-4.86834 0,-2.73403 1.53458,-4.445 1.53459,-1.71098 4.25098,-1.71098 1.23472,0 2.2225,0.24695 1.00542,0.2293 1.37584,0.635 0.0176,0.14111 0.0176,0.52917 0,0.38805 -0.26458,1.11125 -0.26458,0.70555 -0.59972,1.05833 -0.33514,0.35278 -0.49389,0.35278 -0.14111,0 -0.3175,-0.12347 -0.15875,-0.14111 -0.65264,-0.28223 -0.49389,-0.15875 -0.9525,-0.15875 -1.09361,0 -1.78153,0.70556 -0.67028,0.70556 -0.67028,2.18722 0,1.48167 0.68792,2.25778 0.70555,0.75848 1.60514,0.75848 0.91722,0 0.91722,-0.45862 z"
         style="stroke-width:3.809"
         id="path673" />
      <path
         d="m 368.92454,321.95056 q -0.49389,-0.88194 -0.49389,-1.42875 0,-0.56444 0.29986,-0.72319 1.00542,-0.44097 2.75167,-0.44097 1.76389,0 2.48708,0.82902 0.7232,0.81139 0.7232,2.41653 v 2.78695 h 0.59972 q 0.29986,0 0.45861,0.35278 0.17639,0.35278 0.17639,0.97014 0,0.61736 -0.3175,1.21708 -0.29986,0.59972 -0.82903,0.59972 -0.9525,0 -1.53458,-0.51152 -0.26459,-0.21167 -0.4057,-0.51153 -0.81139,1.02305 -2.52236,1.02305 -1.28764,0 -2.16959,-0.91722 -0.88194,-0.91722 -0.88194,-2.16958 0,-2.87514 3.43959,-2.87514 h 0.97013 v -0.17639 q 0,-0.45861 -0.15875,-0.58209 -0.14111,-0.14111 -0.68791,-0.14111 -0.67028,0 -1.905,0.28222 z m 1.41111,3.24556 q 0,0.38806 0.21167,0.59972 0.21166,0.19403 0.52916,0.19403 0.33514,0 0.59972,-0.26458 v -1.3582 h -0.49388 q -0.84667,0 -0.84667,0.82903 z"
         style="stroke-width:3.809"
         id="path675" />
      <path
         d="m 384.92302,328.26529 q 0,0.12347 -1.51695,0.12347 -1.4993,0 -1.4993,-0.15875 v -5.13292 q 0,-0.88194 -0.58209,-0.88194 -0.29986,0 -0.79375,0.38805 v 5.64445 q 0,0.17639 -1.51694,0.17639 -1.49931,0 -1.49931,-0.19403 v -5.76792 h -0.44097 q -0.58208,0 -0.58208,-1.21708 0,-0.54681 0.21166,-1.11125 0.28222,-0.77611 0.91723,-0.77611 0.635,0 1.21708,0.33513 0.59972,0.33514 0.72319,0.63501 1.09362,-0.97014 2.41653,-0.97014 1.34056,0 2.15195,0.82902 0.9525,-0.82902 2.29306,-0.82902 2.91042,0 2.91042,3.54541 v 5.36223 q 0,0.12347 -1.51695,0.12347 -1.49931,0 -1.49931,-0.15875 v -5.13292 q 0,-0.88194 -0.58208,-0.88194 -0.3175,0 -0.81139,0.38805 z"
         style="stroke-width:3.809"
         id="path677" />
      <path
         d="m 397.49956,327.87723 q -1.11125,0.65264 -2.8575,0.65264 -1.74625,0 -2.9457,-1.1818 -1.19944,-1.19945 -1.19944,-3.29848 0,-2.11666 1.14653,-3.4043 1.16416,-1.28764 2.92805,-1.28764 1.76389,0 2.7164,0.89958 0.97013,0.89958 0.97013,2.18722 0,2.85751 -3.28083,2.85751 h -1.21708 q 0,0.52916 0.28222,0.74083 0.29986,0.19403 0.8643,0.19403 1.23473,0 2.34598,-0.56445 0.0176,-0.0176 0.15875,0.24695 0.42333,0.75847 0.42333,1.28764 0,0.51152 -0.33514,0.67027 z m -2.20486,-5.09764 q 0,-0.74083 -0.7232,-0.74083 -0.33513,0 -0.58208,0.21167 -0.2293,0.19402 -0.2293,0.58208 v 0.54681 h 0.9525 q 0.58208,0 0.58208,-0.59973 z"
         style="stroke-width:3.809"
         id="path679" />
    </g>
    <g
       aria-label="Developer"
       id="text1647-01"
       style="font-size:17.6389px;font-family:'Lilita One';-inkscape-font-specification:'Lilita One';fill:#1b1b1b;stroke-width:3.80899;stroke-linecap:round;stroke-linejoin:round;stroke-opacity:0.5;paint-order:markers stroke fill">
      <path
         d="m 315.22304,346.41645 v -10.58334 q 0,-0.44097 0.21167,-0.68791 0.2293,-0.26459 0.58208,-0.26459 h 2.9457 q 2.80458,0 4.25097,1.41112 1.46403,1.41111 1.46403,4.445 0,6.49111 -5.53861,6.49111 h -3.01626 q -0.89958,0 -0.89958,-0.81139 z m 3.38667,-8.18445 v 5.27404 q 0,0.37041 0.0529,0.47625 0.0529,0.0882 0.3175,0.0882 0.97014,0 1.46402,-0.72319 0.51153,-0.7232 0.51153,-2.39889 0,-1.69334 -0.52916,-2.20487 -0.51153,-0.51153 -1.64042,-0.51153 z"
         style="stroke-width:3.809"
         id="path720" />
      <path
         d="m 332.6679,346.75159 q -1.11125,0.65264 -2.8575,0.65264 -1.74625,0 -2.9457,-1.1818 -1.19944,-1.19945 -1.19944,-3.29848 0,-2.11667 1.14652,-3.40431 1.16417,-1.28764 2.92806,-1.28764 1.76389,0 2.71639,0.89959 0.97014,0.89958 0.97014,2.18722 0,2.8575 -3.28083,2.8575 h -1.21709 q 0,0.52917 0.28222,0.74084 0.29987,0.19403 0.86431,0.19403 1.23472,0 2.34597,-0.56445 0.0176,-0.0176 0.15875,0.24695 0.42334,0.75847 0.42334,1.28764 0,0.51152 -0.33514,0.67027 z m -2.20486,-5.09764 q 0,-0.74083 -0.7232,-0.74083 -0.33514,0 -0.58208,0.21166 -0.22931,0.19403 -0.22931,0.58209 v 0.5468 h 0.9525 q 0.58209,0 0.58209,-0.59972 z"
         style="stroke-width:3.809"
         id="path722" />
      <path
         d="m 333.88499,338.46131 q -0.0529,-0.14111 1.64041,-0.14111 1.71098,0 1.71098,0.0882 l 1.27,5.99723 0.9525,-5.90903 q 0.0529,-0.15875 1.74625,-0.15875 1.71097,0 1.65806,0.14111 l -2.48709,8.62542 q -0.12347,0.17639 -2.09903,0.17639 -1.97556,0 -2.11667,-0.26458 z"
         style="stroke-width:3.809"
         id="path724" />
      <path
         d="m 350.43027,346.75159 q -1.11125,0.65264 -2.8575,0.65264 -1.74625,0 -2.9457,-1.1818 -1.19944,-1.19945 -1.19944,-3.29848 0,-2.11667 1.14653,-3.40431 1.16416,-1.28764 2.92805,-1.28764 1.76389,0 2.7164,0.89959 0.97013,0.89958 0.97013,2.18722 0,2.8575 -3.28083,2.8575 h -1.21708 q 0,0.52917 0.28222,0.74084 0.29986,0.19403 0.8643,0.19403 1.23473,0 2.34598,-0.56445 0.0176,-0.0176 0.15875,0.24695 0.42333,0.75847 0.42333,1.28764 0,0.51152 -0.33514,0.67027 z m -2.20486,-5.09764 q 0,-0.74083 -0.7232,-0.74083 -0.33513,0 -0.58208,0.21166 -0.2293,0.19403 -0.2293,0.58209 v 0.5468 h 0.9525 q 0.58208,0 0.58208,-0.59972 z"
         style="stroke-width:3.809"
         id="path726" />
      <path
         d="m 355.54555,347.08673 q 0,0.15875 -1.79916,0.15875 -1.41112,-0.0176 -1.41112,-0.14111 v -12.01209 q 0,-0.26458 1.71098,-0.26458 1.4993,0.0529 1.4993,0.17639 z"
         style="stroke-width:3.809"
         id="path728" />
      <path
         d="m 357.89152,346.18715 q -1.09361,-1.21709 -1.09361,-3.36903 0,-2.15195 1.09361,-3.36903 1.11125,-1.21709 2.98097,-1.21709 1.86973,0 2.96334,1.21709 1.09361,1.21708 1.09361,3.36903 0,2.15194 -1.09361,3.36903 -1.09361,1.21708 -2.96334,1.21708 -1.86972,0 -2.98097,-1.21708 z m 2.98097,-5.00945 q -0.98778,0 -0.98778,1.62278 0,1.62278 0.98778,1.62278 1.00542,0 1.00542,-1.62278 0,-1.62278 -1.00542,-1.62278 z"
         style="stroke-width:3.809"
         id="path730" />
      <path
         d="m 369.97417,350.43812 q 0,0.12348 -1.51694,0.12348 -1.49931,0 -1.49931,-0.12348 v -9.08403 h -0.59972 q -0.42334,0 -0.58209,-0.77611 -0.0529,-0.24695 -0.0529,-0.635 0,-0.38806 0.24694,-0.91722 0.35278,-0.77612 1.12889,-0.77612 0.51153,0 0.93486,0.24695 0.44098,0.2293 0.59973,0.44097 0.17638,0.19403 0.17638,0.22931 1.18181,-0.91723 2.55765,-0.91723 1.37583,0 2.36361,1.07598 0.98778,1.05833 0.98778,3.29847 0,2.2225 -0.98778,3.45723 -0.98778,1.21708 -2.50473,1.21708 -0.68791,0 -1.25236,-0.0706 z m 0.7232,-9.10167 q -0.29986,0 -0.58209,0.19403 v 3.12208 q 0.29986,0.0353 0.47625,0.0353 0.19403,0 0.29986,0 0.7232,-0.0705 0.7232,-1.85208 0,-1.49931 -0.91722,-1.49931 z"
         style="stroke-width:3.809"
         id="path732" />
      <path
         d="m 382.63891,346.75159 q -1.11125,0.65264 -2.8575,0.65264 -1.74625,0 -2.9457,-1.1818 -1.19944,-1.19945 -1.19944,-3.29848 0,-2.11667 1.14652,-3.40431 1.16417,-1.28764 2.92806,-1.28764 1.76389,0 2.71639,0.89959 0.97014,0.89958 0.97014,2.18722 0,2.8575 -3.28083,2.8575 h -1.21709 q 0,0.52917 0.28222,0.74084 0.29987,0.19403 0.86431,0.19403 1.23472,0 2.34597,-0.56445 0.0176,-0.0176 0.15875,0.24695 0.42334,0.75847 0.42334,1.28764 0,0.51152 -0.33514,0.67027 z m -2.20486,-5.09764 q 0,-0.74083 -0.7232,-0.74083 -0.33514,0 -0.58208,0.21166 -0.22931,0.19403 -0.22931,0.58209 v 0.5468 h 0.9525 q 0.58209,0 0.58209,-0.59972 z"
         style="stroke-width:3.809"
         id="path734" />
      <path
         d="m 388.40683,347.21021 q 0,0.12347 -1.60514,0.12347 -1.60514,-0.0353 -1.60514,-0.14111 v -5.85612 h -0.47625 q -0.28222,0 -0.45861,-0.33514 -0.15875,-0.35278 -0.15875,-0.8643 0,-1.90501 1.12889,-1.90501 0.79375,0 1.32292,0.49389 0.52916,0.47625 0.52916,1.09362 0.37042,-0.7232 0.98778,-1.14653 0.635,-0.44098 1.28764,-0.44098 1.02306,0 1.23472,0.52917 0.0529,0.14111 0.0529,0.42334 0,0.26458 -0.17639,0.97014 -0.15875,0.70555 -0.33514,1.02305 -0.17639,0.3175 -0.21166,0.3175 -0.0353,0 -0.33514,-0.12347 -0.28223,-0.14111 -0.51153,-0.14111 -0.67028,0 -0.67028,1.05833 z"
         style="stroke-width:3.809"
         id="path736" />
    </g>
    <g
       aria-label="Developer"
       id="text1651-9"
       style="font-size:17.6389px;font-family:'Lilita One';-inkscape-font-specification:'Lilita One';fill:#ffffff;stroke-width:3.80899;stroke-linecap:round;stroke-linejoin:round;stroke-opacity:0.5;paint-order:markers stroke fill">
      <path
         d="m 312.99153,344.21577 v -10.58334 q 0,-0.44097 0.21167,-0.68792 0.22931,-0.26458 0.58208,-0.26458 h 2.9457 q 2.80459,0 4.25098,1.41111 1.46402,1.41111 1.46402,4.44501 0,6.49111 -5.53861,6.49111 h -3.01625 q -0.89959,0 -0.89959,-0.81139 z m 3.38667,-8.18445 v 5.27403 q 0,0.37042 0.0529,0.47625 0.0529,0.0882 0.3175,0.0882 0.97014,0 1.46403,-0.7232 0.51153,-0.72319 0.51153,-2.39889 0,-1.69333 -0.52917,-2.20486 -0.51153,-0.51153 -1.64042,-0.51153 z"
         style="stroke-width:3.809"
         id="path701" />
      <path
         d="m 330.43639,344.55091 q -1.11125,0.65264 -2.8575,0.65264 -1.74625,0 -2.9457,-1.18181 -1.19944,-1.19944 -1.19944,-3.29847 0,-2.11667 1.14653,-3.40431 1.16417,-1.28764 2.92806,-1.28764 1.76389,0 2.71639,0.89959 0.97014,0.89958 0.97014,2.18722 0,2.8575 -3.28084,2.8575 h -1.21708 q 0,0.52917 0.28222,0.74083 0.29986,0.19403 0.8643,0.19403 1.23473,0 2.34598,-0.56444 0.0176,-0.0176 0.15875,0.24694 0.42333,0.75848 0.42333,1.28764 0,0.51153 -0.33514,0.67028 z m -2.20486,-5.09764 q 0,-0.74084 -0.72319,-0.74084 -0.33514,0 -0.58209,0.21167 -0.2293,0.19403 -0.2293,0.58208 v 0.54681 h 0.9525 q 0.58208,0 0.58208,-0.59972 z"
         style="stroke-width:3.809"
         id="path703" />
      <path
         d="m 331.65348,336.26063 q -0.0529,-0.14111 1.64042,-0.14111 1.71097,0 1.71097,0.0882 l 1.27,5.99723 0.9525,-5.90904 q 0.0529,-0.15875 1.74625,-0.15875 1.71098,0 1.65806,0.14112 l -2.48709,8.62542 q -0.12347,0.17639 -2.09902,0.17639 -1.97556,0 -2.11667,-0.26459 z"
         style="stroke-width:3.809"
         id="path705" />
      <path
         d="m 348.19877,344.55091 q -1.11126,0.65264 -2.85751,0.65264 -1.74625,0 -2.94569,-1.18181 -1.19945,-1.19944 -1.19945,-3.29847 0,-2.11667 1.14653,-3.40431 1.16417,-1.28764 2.92806,-1.28764 1.76389,0 2.71639,0.89959 0.97014,0.89958 0.97014,2.18722 0,2.8575 -3.28084,2.8575 h -1.21708 q 0,0.52917 0.28222,0.74083 0.29986,0.19403 0.86431,0.19403 1.23472,0 2.34597,-0.56444 0.0176,-0.0176 0.15875,0.24694 0.42333,0.75848 0.42333,1.28764 0,0.51153 -0.33513,0.67028 z m -2.20487,-5.09764 q 0,-0.74084 -0.72319,-0.74084 -0.33514,0 -0.58209,0.21167 -0.2293,0.19403 -0.2293,0.58208 v 0.54681 h 0.9525 q 0.58208,0 0.58208,-0.59972 z"
         style="stroke-width:3.809"
         id="path707" />
      <path
         d="m 353.31405,344.88605 q 0,0.15875 -1.79917,0.15875 -1.41111,-0.0176 -1.41111,-0.14111 V 332.8916 q 0,-0.26459 1.71097,-0.26459 1.49931,0.0529 1.49931,0.17639 z"
         style="stroke-width:3.809"
         id="path709" />
      <path
         d="m 355.66001,343.98647 q -1.09361,-1.21709 -1.09361,-3.36903 0,-2.15195 1.09361,-3.36903 1.11125,-1.21709 2.98098,-1.21709 1.86972,0 2.96333,1.21709 1.09361,1.21708 1.09361,3.36903 0,2.15194 -1.09361,3.36903 -1.09361,1.21708 -2.96333,1.21708 -1.86973,0 -2.98098,-1.21708 z m 2.98098,-5.00945 q -0.98778,0 -0.98778,1.62278 0,1.62278 0.98778,1.62278 1.00541,0 1.00541,-1.62278 0,-1.62278 -1.00541,-1.62278 z"
         style="stroke-width:3.809"
         id="path711" />
      <path
         d="m 367.74267,348.23744 q 0,0.12347 -1.51695,0.12347 -1.49931,0 -1.49931,-0.12347 v -9.08403 h -0.59972 q -0.42333,0 -0.58208,-0.77611 -0.0529,-0.24695 -0.0529,-0.63501 0,-0.38805 0.24695,-0.91722 0.35277,-0.77611 1.12888,-0.77611 0.51153,0 0.93487,0.24694 0.44097,0.22931 0.59972,0.44098 0.17639,0.19403 0.17639,0.2293 1.1818,-0.91722 2.55764,-0.91722 1.37583,0 2.36361,1.07597 0.98778,1.05834 0.98778,3.29848 0,2.2225 -0.98778,3.45722 -0.98778,1.21709 -2.50472,1.21709 -0.68792,0 -1.25236,-0.0706 z m 0.72319,-9.10167 q -0.29986,0 -0.58208,0.19403 v 3.12208 q 0.29986,0.0353 0.47625,0.0353 0.19402,0 0.29986,0 0.72319,-0.0706 0.72319,-1.85209 0,-1.4993 -0.91722,-1.4993 z"
         style="stroke-width:3.809"
         id="path713" />
      <path
         d="m 380.4074,344.55091 q -1.11125,0.65264 -2.8575,0.65264 -1.74625,0 -2.9457,-1.18181 -1.19944,-1.19944 -1.19944,-3.29847 0,-2.11667 1.14653,-3.40431 1.16417,-1.28764 2.92806,-1.28764 1.76389,0 2.71639,0.89959 0.97014,0.89958 0.97014,2.18722 0,2.8575 -3.28084,2.8575 h -1.21708 q 0,0.52917 0.28222,0.74083 0.29986,0.19403 0.8643,0.19403 1.23473,0 2.34598,-0.56444 0.0176,-0.0176 0.15875,0.24694 0.42333,0.75848 0.42333,1.28764 0,0.51153 -0.33514,0.67028 z m -2.20486,-5.09764 q 0,-0.74084 -0.72319,-0.74084 -0.33514,0 -0.58209,0.21167 -0.2293,0.19403 -0.2293,0.58208 v 0.54681 h 0.9525 q 0.58208,0 0.58208,-0.59972 z"
         style="stroke-width:3.809"
         id="path715" />
      <path
         d="m 386.17532,345.00952 q 0,0.12347 -1.60514,0.12347 -1.60514,-0.0353 -1.60514,-0.14111 v -5.85611 h -0.47625 q -0.28222,0 -0.45861,-0.33514 -0.15875,-0.35278 -0.15875,-0.86431 0,-1.905 1.12889,-1.905 0.79375,0 1.32292,0.49389 0.52917,0.47625 0.52917,1.09361 0.37041,-0.72319 0.98777,-1.14653 0.635,-0.44097 1.28764,-0.44097 1.02306,0 1.23473,0.52917 0.0529,0.14111 0.0529,0.42333 0,0.26459 -0.17638,0.97014 -0.15876,0.70556 -0.33514,1.02306 -0.17639,0.3175 -0.21167,0.3175 -0.0353,0 -0.33514,-0.12347 -0.28222,-0.14112 -0.51153,-0.14112 -0.67028,0 -0.67028,1.05834 z"
         style="stroke-width:3.809"
         id="path717" />
    </g>
  </g>
</svg>
