<?xml version="1.0" encoding="UTF-8" standalone="no"?>
<!-- Created with Inkscape (http://www.inkscape.org/) -->

<svg
   width="48.49826mm"
   height="49.950348mm"
   viewBox="0 0 48.49826 49.950348"
   version="1.1"
   id="svg5"
   inkscape:version="1.2.2 (732a01da63, 2022-12-09)"
   sodipodi:docname="px_logo_designs.svg"
   xmlns:inkscape="http://www.inkscape.org/namespaces/inkscape"
   xmlns:sodipodi="http://sodipodi.sourceforge.net/DTD/sodipodi-0.dtd"
   xmlns="http://www.w3.org/2000/svg"
   xmlns:svg="http://www.w3.org/2000/svg">
  <sodipodi:namedview
     id="namedview7"
     pagecolor="#505050"
     bordercolor="#eeeeee"
     borderopacity="1"
     inkscape:showpageshadow="0"
     inkscape:pageopacity="0"
     inkscape:pagecheckerboard="0"
     inkscape:deskcolor="#505050"
     inkscape:document-units="mm"
     showgrid="false"
     inkscape:zoom="1.0771772"
     inkscape:cx="1316.4037"
     inkscape:cy="659.13018"
     inkscape:window-width="1920"
     inkscape:window-height="1009"
     inkscape:window-x="-8"
     inkscape:window-y="-8"
     inkscape:window-maximized="1"
     inkscape:current-layer="layer2" />
  <defs
     id="defs2">
    <rect
       x="42.340656"
       y="114.54952"
       width="102.4053"
       height="115.53419"
       id="rect10481-2-3-1" />
    <rect
       x="42.340656"
       y="114.54952"
       width="102.4053"
       height="115.53419"
       id="rect10455-9-6-9" />
  </defs>
  <g
     inkscape:groupmode="layer"
     id="layer2"
     inkscape:label="Layer 2"
     transform="translate(-260.94034,-307.11193)">
    <rect
       style="fill:#1b1b1b;fill-opacity:1;stroke:none;stroke-width:1.21346;stroke-linecap:round;stroke-linejoin:round;stroke-opacity:0.5;paint-order:markers stroke fill"
       id="rect1093-1-9"
       width="10.153414"
       height="10.153414"
       x="198.08434"
       y="381.17853"
       rx="1.1438575"
       ry="1.189376"
       transform="rotate(-13.749683)"
       inkscape:export-filename="px_logo.png"
       inkscape:export-xdpi="134.07489"
       inkscape:export-ydpi="134.07489" />
    <rect
       style="fill:#1b1b1b;fill-opacity:1;stroke:none;stroke-width:1.21346;stroke-linecap:round;stroke-linejoin:round;stroke-opacity:0.5;paint-order:markers stroke fill"
       id="rect1085-5-9"
       width="10.153414"
       height="10.153414"
       x="199.3492"
       y="369.31674"
       rx="1.1438575"
       ry="1.189376"
       transform="rotate(-13.749683)" />
    <rect
       style="fill:#323232;fill-opacity:1;stroke:none;stroke-width:1.21346;stroke-linecap:round;stroke-linejoin:round;stroke-opacity:0.5;paint-order:markers stroke fill"
       id="rect1095-4-1"
       width="10.153414"
       height="10.153414"
       x="195.89856"
       y="378.51614"
       rx="1.1438575"
       ry="1.189376"
       transform="rotate(-13.749683)" />
    <rect
       style="fill:#323232;fill-opacity:1;stroke:none;stroke-width:1.21346;stroke-linecap:round;stroke-linejoin:round;stroke-opacity:0.5;paint-order:markers stroke fill"
       id="rect1087-5-3"
       width="10.153414"
       height="10.153414"
       x="197.16342"
       y="366.65439"
       rx="1.1438575"
       ry="1.189376"
       transform="rotate(-13.749683)" />
    <rect
       style="fill:#1b1b1b;fill-opacity:1;stroke:none;stroke-width:2.64303;stroke-linecap:round;stroke-linejoin:round;stroke-opacity:0.5;paint-order:markers stroke fill"
       id="rect10469-4-4"
       width="22.115105"
       height="22.115105"
       x="62.068058"
       y="427.08322"
       rx="2.4914308"
       ry="2.5905745"
       transform="rotate(-30)" />
    <rect
       style="fill:#323232;fill-opacity:1;stroke:none;stroke-width:2.64303;stroke-linecap:round;stroke-linejoin:round;stroke-opacity:0.5;paint-order:markers stroke fill"
       id="rect10435-9-8"
       width="22.115105"
       height="22.115105"
       x="60.063587"
       y="422.39188"
       rx="2.4914308"
       ry="2.5905745"
       transform="rotate(-30)" />
    <rect
       style="fill:#1b1b1b;fill-opacity:1;stroke:none;stroke-width:1.79716;stroke-linecap:round;stroke-linejoin:round;stroke-opacity:0.5;paint-order:markers stroke fill"
       id="rect10467-98-6"
       width="15.037367"
       height="15.037367"
       x="203.61357"
       y="394.83594"
       rx="1.6940711"
       ry="1.7614847"
       transform="rotate(-13.749683)" />
    <rect
       style="fill:#323232;fill-opacity:1;stroke:none;stroke-width:1.79716;stroke-linecap:round;stroke-linejoin:round;stroke-opacity:0.5;paint-order:markers stroke fill"
       id="rect10459-0-6"
       width="15.037367"
       height="15.037367"
       x="200.37639"
       y="390.89294"
       rx="1.6940711"
       ry="1.7614847"
       transform="rotate(-13.749683)" />
    <rect
       style="fill:#1b1b1b;fill-opacity:1;stroke:none;stroke-width:1.79716;stroke-linecap:round;stroke-linejoin:round;stroke-opacity:0.5;paint-order:markers stroke fill"
       id="rect10885-7-6"
       width="15.037367"
       height="15.037367"
       x="180.13615"
       y="377.32352"
       rx="1.6940711"
       ry="1.7614847"
       transform="rotate(-13.749683)" />
    <g
       aria-label="P"
       transform="matrix(0.52181292,-0.13981935,0.13981935,0.52181292,229.59371,263.75214)"
       id="text10475-05-3"
       style="font-size:66.6667px;font-family:'Lilita One';-inkscape-font-specification:'Lilita One';white-space:pre;shape-inside:url(#rect10481-2-3-1);fill:#1b1b1b;stroke-width:14.3962;stroke-linecap:round;stroke-linejoin:round;stroke-opacity:0.5;paint-order:markers stroke fill">
      <path
         d="m 51.473182,176.8864 q -6.06667,0 -6.06667,-1.33333 v -43.20003 q 0,-2.26666 2.066668,-2.26666 h 11.733339 q 9.866672,0 14.200008,4.06667 4.400002,4.06666 4.400002,11.8 0,6.40001 -4.133335,11.73334 -2.066668,2.66667 -6.06667,4.26667 -4.000002,1.6 -9.333338,1.6 v 11.93334 q 0,0.8 -2.533335,1.13333 -2.466668,0.26667 -4.266669,0.26667 z m 6.800004,-35.20002 v 10.53334 h 0.866667 q 2.333334,0 3.933335,-1.46667 1.600001,-1.46666 1.600001,-4.13333 0,-2.66667 -1.133334,-3.8 -1.066667,-1.13334 -3.866669,-1.13334 z"
         id="path654" />
    </g>
    <g
       aria-label="x"
       transform="rotate(-165)"
       id="text10479-4-1"
       style="font-size:18.592px;font-family:'Lilita One';-inkscape-font-specification:'Lilita One';fill:#1b1b1b;stroke-width:4.0148;stroke-linecap:round;stroke-linejoin:round;stroke-opacity:0.5;paint-order:markers stroke fill">
      <path
         d="m -372.4899,-258.22034 q 0.0744,-0.14874 0.9296,-0.14874 2.7888,0 2.71443,0.20451 l -2.26823,4.70378 q 2.28682,4.27616 2.28682,4.27616 0,0.11155 -1.11552,0.18592 -1.11552,0.0744 -1.58032,0.0744 -1.1713,0 -1.24566,-0.2417 l -1.00397,-3.10486 -1.15271,3.23501 q -0.0372,0.13014 -1.05974,0.13014 -1.02256,0 -1.82202,-0.0744 -0.79945,-0.0744 -0.72508,-0.18592 l 2.10089,-4.27616 q -2.19385,-4.59222 -2.19385,-4.61081 0,-0.11156 0.55776,-0.20452 0.57635,-0.093 1.28284,-0.093 0.72509,0 1.37581,0.0744 0.65072,0.0558 0.72509,0.16733 l 0.98538,3.0119 z"
         style="stroke-width:4.01481"
         id="path660" />
    </g>
    <rect
       style="fill:#323232;fill-opacity:1;stroke:none;stroke-width:1.79716;stroke-linecap:round;stroke-linejoin:round;stroke-opacity:0.5;paint-order:markers stroke fill"
       id="rect10887-4-7"
       width="15.037367"
       height="15.037367"
       x="176.89897"
       y="373.38052"
       rx="1.6940711"
       ry="1.7614847"
       transform="rotate(-13.749683)" />
    <g
       aria-label="P"
       transform="matrix(0.52181292,-0.13981935,0.13981935,0.52181292,225.51213,260.69156)"
       id="text10443-6-1"
       style="font-size:66.6667px;font-family:'Lilita One';-inkscape-font-specification:'Lilita One';white-space:pre;shape-inside:url(#rect10455-9-6-9);fill:#ffffff;stroke-width:14.3962;stroke-linecap:round;stroke-linejoin:round;stroke-opacity:0.5;paint-order:markers stroke fill">
      <path
         d="m 51.473182,176.8864 q -6.06667,0 -6.06667,-1.33333 v -43.20003 q 0,-2.26666 2.066668,-2.26666 h 11.733339 q 9.866672,0 14.200008,4.06667 4.400002,4.06666 4.400002,11.8 0,6.40001 -4.133335,11.73334 -2.066668,2.66667 -6.06667,4.26667 -4.000002,1.6 -9.333338,1.6 v 11.93334 q 0,0.8 -2.533335,1.13333 -2.466668,0.26667 -4.266669,0.26667 z m 6.800004,-35.20002 v 10.53334 h 0.866667 q 2.333334,0 3.933335,-1.46667 1.600001,-1.46666 1.600001,-4.13333 0,-2.66667 -1.133334,-3.8 -1.066667,-1.13334 -3.866669,-1.13334 z"
         id="path651" />
    </g>
    <g
       aria-label="x"
       transform="rotate(-165)"
       id="text10451-3-9"
       style="font-size:18.592px;font-family:'Lilita One';-inkscape-font-specification:'Lilita One';fill:#ffffff;stroke-width:4.0148;stroke-linecap:round;stroke-linejoin:round;stroke-opacity:0.5;paint-order:markers stroke fill">
      <path
         d="m -367.75529,-256.32045 q 0.0744,-0.14874 0.9296,-0.14874 2.7888,0 2.71444,0.20451 l -2.26823,4.70378 q 2.28682,4.27616 2.28682,4.27616 0,0.11155 -1.11552,0.18592 -1.11552,0.0744 -1.58032,0.0744 -1.1713,0 -1.24567,-0.2417 l -1.00396,-3.10486 -1.15271,3.235 q -0.0372,0.13015 -1.05974,0.13015 -1.02256,0 -1.82202,-0.0744 -0.79945,-0.0744 -0.72509,-0.18592 l 2.1009,-4.27616 q -2.19386,-4.59222 -2.19386,-4.61082 0,-0.11155 0.55776,-0.20451 0.57636,-0.093 1.28285,-0.093 0.72509,0 1.37581,0.0744 0.65072,0.0558 0.72509,0.16733 l 0.98537,3.0119 z"
         style="stroke-width:4.01481"
         id="path657" />
    </g>
    <rect
       style="fill:#1b1b1b;fill-opacity:1;stroke:none;stroke-width:1.21346;stroke-linecap:round;stroke-linejoin:round;stroke-opacity:0.5;paint-order:markers stroke fill"
       id="rect1089-0-9"
       width="10.153414"
       height="10.153414"
       x="211.21812"
       y="378.65613"
       rx="1.1438575"
       ry="1.189376"
       transform="rotate(-13.749683)" />
    <rect
       style="fill:#323232;fill-opacity:1;stroke:none;stroke-width:1.21346;stroke-linecap:round;stroke-linejoin:round;stroke-opacity:0.5;paint-order:markers stroke fill"
       id="rect1091-8-3"
       width="10.153414"
       height="10.153414"
       x="209.03235"
       y="375.99377"
       rx="1.1438575"
       ry="1.189376"
       transform="rotate(-13.749683)" />
  </g>
</svg>
